# xmcd
#
# Track frame offsets:
#	150
#	13083
#	23475
#	35848
#	56428
#	69375
#	81300
#	94065
#	104210
#	115550
#	139455
#	153833
#
# Disc length: 2469 seconds
#
# Revision: 0
# Processed by: cddbd v1.5.1PL0 Copyright (c) Steve Scherf et al.
# Submitted via: dBpowerAMP V4.0
#
DISCID=9c09a30c
DTITLE=Livin' Blues - Complete Collection 3
DYEAR=2003
DGENRE=Blues
TTITLE0=Murphy McCoy
TTITLE1=My sister Kate
TTITLE2=(You better watch yourself) Sonny Boy
TTITLE3=One night blues (alternative version)
TTITLE4=Wang dang doodle (single version)
TTITLE5=Crazy woman
TTITLE6=Black Lisa
TTITLE7=Red mountain river
TTITLE8=Choice
TTITLE9=Selection
TTITLE10=L.B. Boogie (single version)
TTITLE11=Johnny W
EXTD=
EXTT0=
EXTT1=
EXTT2=
EXTT3=
EXTT4=
EXTT5=
EXTT6=
EXTT7=
EXTT8=
EXTT9=
EXTT10=
EXTT11=
PLAYORDER=
